:SAMPLES-PER-SECOND 30
:FULLY-SPECIFIED
:DEGREES
1
root  -104.726 44.6005 -1.52816 -141.322 84.0618 -146.141
RightUpLeg  -5.84238 5.31787 5.4578
RightLeg  27.4347 5.89258 -2.08346
RightFoot  34.8321 -3.30985 7.46475
RightToes  8.73114e-010 -1.59028e-015 9.93923e-017
Spine  -8.85167 -1.86513 1.56319
Spine1  10.5584 -1.7595 -0.393411
HEad  -9.463 -3.96815 3.54632
LeftShoulder1  9.93923e-017 0 1.22299e-017
LeftArm  7.33396 45.6093 -71.4164
LeftForeArm  -36.2781 -52.9883 33.5883
LeftHand  0.832184 6.1762 4.09231
RightShoulder  1.98785e-016 -4.96962e-017 1.55301e-017
RightArm  31.3636 -42.4999 72.963
RightForeArm  -36.3228 30.0473 -27.3298
RightHand  0.941955 -11.5932 2.777
LeftUpLeg  -6.58475 -9.94459 1.14286
LeftLeg  23.1888 -8.15712 0.449017
LeftFoot  33.035 2.4904 -5.56626
LeftToes  -2.6557e-010 -5.74853e-011 7.92038e-011
2
root  -103.164 45.7807 -1.54659 -148.584 84.9249 -152.943
RightUpLeg  -7.75149 7.88866 4.2503
RightLeg  32.8618 6.22359 -2.51556
RightFoot  30.9598 -2.33636 5.74549
RightToes  8.73114e-010 -1.59028e-015 9.93923e-017
Spine  -7.26751 -1.7236 -0.238137
Spine1  12.2398 -1.76557 -0.623027
HEad  -13.4029 -3.89825 3.9881
LeftShoulder1  9.93923e-017 0 1.22299e-017
LeftArm  6.41394 47.5058 -72.084
LeftForeArm  -36.597 -51.7594 32.4245
LeftHand  1.06807 7.51483 3.23912
RightShoulder  1.98785e-016 -4.96962e-017 1.55301e-017
RightArm  29.5815 -44.5275 71.9264
RightForeArm  -38.493 30.2782 -27.3615
RightHand  1.02417 -11.8219 1.3958
LeftUpLeg  -9.04733 -9.21393 0.0160709
LeftLeg  28.2258 -9.54719 0.106753
LeftFoot  27.7944 1.98737 -5.03833
LeftToes  -2.6557e-010 -5.74853e-011 7.92038e-011
3
root  -101.419 47.014 -1.55345 -159.054 84.9646 -162.05
RightUpLeg  -9.69816 7.90117 3.09996
RightLeg  37.2487 9.10697 -0.621259
RightFoot  29.6193 -2.22886 5.70536
RightToes  8.73114e-010 -1.59028e-015 9.93923e-017
Spine  -2.29805 -1.74137 -2.6987
Spine1  12.0649 -2.28121 0.570026
HEad  -15.9891 -3.28068 4.16257
LeftShoulder1  9.93923e-017 0 1.22299e-017
LeftArm  8.02479 49.1235 -72.8273
LeftForeArm  -36.7192 -47.0212 28.5023
LeftHand  1.02037 7.24302 4.82654
RightShoulder  1.98785e-016 -4.96962e-017 1.55301e-017
RightArm  29.3788 -46.5233 70.5569
RightForeArm  -40.8438 29.6868 -26.7779
RightHand  1.05388 -11.5806 0.313418
LeftUpLeg  -11.351 -8.28311 -0.67503
LeftLeg  32.3219 -8.85475 0.984306
LeftFoot  23.076 1.91681 -5.61005
LeftToes  -2.6557e-010 -5.74853e-011 7.92038e-011
4
root  -99.6621 47.9993 -1.56736 -163.963 84.4249 -166.033
RightUpLeg  -11.4399 6.33627 2.51405
RightLeg  37.615 12.5847 2.23266
RightFoot  27.9794 -2.68968 7.19268
RightToes  8.73114e-010 -1.59028e-015 9.93923e-017
Spine  2.1564 -1.91335 -4.12912
Spine1  11.2444 -2.79563 1.45815
HEad  -15.8814 -2.35162 4.86283
LeftShoulder1  9.93923e-017 0 1.22299e-017
LeftArm  10.8003 51.4632 -72.6769
LeftForeArm  -38.6991 -42.8581 25.659
LeftHand  0.958226 6.91052 6.67189
RightShoulder  1.98785e-016 -4.96962e-017 1.55301e-017
RightArm  31.37 -48.407 69.9167
RightForeArm  -41.74 28.7088 -26.0208
RightHand  1.05035 -11.4619 0.161525
LeftUpLeg  -13.3563 -7.21386 -0.585793
LeftLeg  32.8563 -7.37732 2.07196
LeftFoot  21.0495 2.05001 -6.402
LeftToes  -2.6557e-010 -5.74853e-011 7.92038e-011
5
root  -97.8051 48.5864 -1.59867 -162.782 84.3563 -165.627
RightUpLeg  -14.4289 5.37964 2.31557
RightLeg  35.804 14.3623 3.54201
RightFoot  22.0182 -2.43055 7.68398
RightToes  8.73114e-010 -1.59028e-015 9.93923e-017
Spine  3.9138 -2.0778 -4.44872
Spine1  11.0896 -2.83659 0.996494
HEad  -15.3344 -1.34577 5.97197
LeftShoulder1  9.93923e-017 0 1.22299e-017
LeftArm  12.8988 54.2449 -71.9537
LeftForeArm  -39.6669 -40.2648 24.0993
LeftHand  1.05988 7.43011 6.04168
RightShoulder  1.98785e-016 -4.96962e-017 1.55301e-017
RightArm  34.7845 -50.0552 70.3824
RightForeArm  -41.8011 27.2092 -24.9702
RightHand  1.08024 -11.6421 -0.122463
LeftUpLeg  -16.3431 -5.85287 -0.334352
LeftLeg  31.3366 -6.89827 2.1835
LeftFoot  17.3426 1.79643 -6.32419
LeftToes  -2.6557e-010 -5.74853e-011 7.92038e-011
6
root  -95.9085 48.7782 -1.64912 -156.107 85.0673 -160.633
RightUpLeg  -18.2631 5.37524 2.39046
RightLeg  32.7919 14.3279 3.23463
RightFoot  16.6905 -1.89433 7.1092
RightToes  8.73114e-010 -1.59028e-015 9.93923e-017
Spine  4.15152 -1.99923 -4.21591
Spine1  11.4387 -2.38469 0.0446779
HEad  -15.5226 -0.360347 6.77775
LeftShoulder1  9.93923e-017 0 1.22299e-017
LeftArm  14.0653 57.2956 -71.3604
LeftForeArm  -38.4329 -38.1661 23.0522
LeftHand  1.0462 7.38174 3.88043
RightShoulder  1.98785e-016 -4.96962e-017 1.55301e-017
RightArm  38.1616 -51.6963 71.1198
RightForeArm  -42.5748 25.8204 -23.9883
RightHand  1.10475 -11.671 -0.591121
LeftUpLeg  -19.6106 -4.31823 -0.0632909
LeftLeg  28.239 -6.87384 1.75122
LeftFoot  13.9354 1.67467 -6.71848
LeftToes  -2.6557e-010 -5.74853e-011 7.92038e-011
7
root  -94.0194 48.5853 -1.69996 -142.138 85.7796 -147.665
RightUpLeg  -20.8642 5.33705 3.04972
RightLeg  28.2685 13.5408 2.37487
RightFoot  15.9952 -1.69241 6.53151
RightToes  8.73114e-010 -1.59028e-015 9.93923e-017
Spine  4.69332 -1.73045 -3.89118
Spine1  12.212 -1.87982 -0.382847
HEad  -16.2766 1.03494 6.94809
LeftShoulder1  9.93923e-017 0 1.22299e-017
LeftArm  12.9972 60.9939 -71.4158
LeftForeArm  -37.3327 -37.6212 22.8433
LeftHand  0.930337 6.68909 2.55161
RightShoulder  1.98785e-016 -4.96962e-017 1.55301e-017
RightArm  39.5973 -53.4991 71.6618
RightForeArm  -43.3868 25.4763 -23.7141
RightHand  1.08758 -11.5183 -0.541986
LeftUpLeg  -21.4529 -3.07769 0.676388
LeftLeg  23.4728 -6.51208 1.27052
LeftFoot  14.2929 1.96212 -7.76689
LeftToes  -2.6557e-010 -5.74853e-011 7.92038e-011
8
root  -92.1214 47.9441 -1.71893 -128.838 85.8167 -134.689
RightUpLeg  -21.9905 4.45407 4.25285
RightLeg  23.1268 12.5679 1.58935
RightFoot  15.92 -1.62824 6.29507
RightToes  8.73114e-010 -1.59028e-015 9.93923e-017
Spine  6.0406 -1.43295 -4.16835
Spine1  12.4884 -1.70815 0.172903
HEad  -18.5531 3.84407 7.26946
LeftShoulder1  9.93923e-017 0 1.22299e-017
LeftArm  10.2445 64.9082 -72.4908
LeftForeArm  -37.9414 -38.2844 23.1454
LeftHand  0.897309 6.47318 2.03936
RightShoulder  1.98785e-016 -4.96962e-017 1.55301e-017
RightArm  39.8077 -55.5647 71.9965
RightForeArm  -43.4527 25.659 -23.8306
RightHand  1.07004 -11.5054 -0.186715
LeftUpLeg  -22.3144 -2.82149 1.81266
LeftLeg  18.4224 -5.73196 0.949392
LeftFoot  16.3841 2.30238 -8.45483
LeftToes  -2.6557e-010 -5.74853e-011 7.92038e-011
